<?xml version="1.0" standalone="no"?>
<!DOCTYPE svg PUBLIC "-//W3C//DTD SVG 20010904//EN"
 "http://www.w3.org/TR/2001/REC-SVG-20010904/DTD/svg10.dtd">
<svg version="1.0" xmlns="http://www.w3.org/2000/svg"
 width="272.000000pt" height="204.000000pt" viewBox="0 0 272.000000 204.000000"
 preserveAspectRatio="xMidYMid meet">
<metadata>
Created by potrace 1.16, written by Peter Selinger 2001-2019
</metadata>
<g transform="translate(0.000000,204.000000) scale(0.100000,-0.100000)"
fill="#000000" stroke="none">
<path d="M506 1387 c-19 -29 -90 -141 -159 -249 -68 -109 -128 -194 -132 -190
-5 4 -5 2 -2 -4 3 -6 -7 -29 -22 -53 -31 -47 -117 -239 -110 -246 12 -11 445
-258 454 -258 6 0 108 57 228 127 120 69 221 126 225 126 4 0 7 120 7 267 l0
268 -70 41 c-38 22 -141 81 -228 132 l-157 91 -34 -52z"/>
<path d="M2223 1401 c-72 -25 -117 -62 -147 -123 -25 -51 -26 -57 -26 -248 0
-191 1 -198 26 -248 93 -187 405 -188 498 -1 23 47 26 64 26 161 l0 108 -130
0 -130 0 0 -75 0 -75 40 0 c48 0 53 -18 15 -55 -18 -19 -35 -25 -70 -25 -35 0
-52 6 -70 25 -24 24 -25 27 -25 185 0 158 1 161 25 185 18 19 35 25 70 25 35
0 52 -6 70 -25 14 -13 25 -29 25 -35 0 -6 34 -10 90 -10 l90 0 0 28 c0 46 -49
131 -93 163 -80 58 -189 73 -284 40z m191 -12 c23 -6 56 -21 72 -34 l29 -23
-24 -20 c-24 -19 -25 -19 -57 0 -72 43 -186 32 -249 -23 -50 -44 -57 -84 -53
-284 2 -140 6 -176 20 -197 16 -25 16 -26 -6 -47 -26 -24 -30 -22 -62 39 -17
31 -19 58 -19 230 0 212 4 229 64 293 63 68 175 94 285 66z m-4 -85 c45 -18
48 -24 21 -48 -16 -14 -24 -15 -64 -4 -55 14 -121 -1 -137 -33 -12 -21 -16
-352 -4 -370 7 -12 -24 -49 -41 -49 -27 0 -35 53 -35 228 0 148 3 183 18 212
34 70 151 100 242 64z m177 -385 c-6 -92 -21 -134 -66 -182 -78 -85 -243 -102
-350 -37 l-33 21 23 25 c20 21 24 22 39 9 24 -22 111 -39 163 -31 96 15 149
74 155 174 3 55 9 72 30 94 14 15 29 25 35 21 6 -3 8 -40 4 -94z m-104 -102
c-39 -67 -155 -96 -243 -61 -45 18 -48 24 -21 48 17 15 24 16 59 5 75 -22 152
11 152 65 0 16 12 34 33 50 l32 26 3 -51 c2 -35 -2 -60 -15 -82z"/>
<path d="M1200 1030 l0 -380 90 0 90 0 0 172 c0 95 4 168 8 162 5 -5 28 -53
52 -106 l44 -98 55 0 56 0 50 113 50 112 3 -178 2 -177 90 0 90 0 0 380 0 381
-97 -3 -96 -3 -64 -155 c-34 -85 -68 -166 -74 -180 -10 -23 -14 -16 -60 95
-27 66 -61 148 -75 183 l-26 62 -94 0 -94 0 0 -380z m160 355 c0 -20 -36 -55
-56 -55 l-24 0 0 -292 0 -292 -27 -28 c-15 -15 -30 -28 -34 -28 -5 0 -8 158
-8 350 l0 350 75 0 c40 0 74 -2 74 -5z m460 -25 c-19 -17 -44 -30 -55 -30 -18
0 -35 -31 -109 -202 -49 -112 -92 -207 -97 -212 -5 -6 -9 15 -9 51 0 60 7 79
136 391 l13 32 78 0 78 -1 -35 -29z m-361 -165 c60 -146 71 -183 71 -232 0
-34 -4 -53 -9 -47 -5 5 -48 98 -95 206 -85 193 -86 198 -70 223 9 14 20 25 24
25 4 0 39 -79 79 -175z m411 -175 l0 -350 -72 0 -72 0 37 38 37 38 0 284 0
284 27 28 c15 15 30 28 35 28 4 0 8 -157 8 -350z m-528 184 c12 -71 17 -160
17 -316 l1 -218 -67 0 -67 0 37 38 37 38 0 283 c0 220 3 282 12 279 7 -3 20
-47 30 -104z m432 84 c-4 -13 -20 -66 -36 -118 -15 -52 -56 -157 -91 -232
l-62 -138 -42 0 c-46 0 -49 6 -34 60 5 17 16 27 35 30 25 5 35 22 118 213 57
130 96 207 105 207 10 0 12 -6 7 -22z m-21 -570 c-15 -15 -30 -28 -35 -28 -4
0 -8 75 -8 166 0 157 2 171 33 277 l32 112 3 -249 2 -250 -27 -28z m-318 340
c57 -132 66 -163 61 -193 -4 -19 -10 -35 -14 -35 -14 0 -102 227 -112 290 -6
36 -13 76 -16 90 -11 50 14 3 81 -152z"/>
</g>
</svg>
